<svg id="Capa_1" data-name="Capa 1" xmlns="http://www.w3.org/2000/svg" viewBox="0 0 370.50148 203.36856">
  <defs>
    <style>
      .cls-1 {
        fill: #e50c5f;
        stroke: #e50c5f;
        stroke-width: 3px;
      }

      .cls-1, .cls-2, .cls-3 {
        stroke-miterlimit: 10;
      }

      .cls-2 {
        fill: none;
        stroke-width: 4px;
      }

      .cls-2, .cls-3 {
        stroke: #c1bfbf;
      }

      .cls-3 {
        fill: #c1bfbf;
      }
    </style>
  </defs>
  <title>logo</title>
  <path class="cls-1" d="M333.06577,48.22864c3.9415,3.10761,10.74595,10.2637,17.40047,25.76694a2.86273,2.86273,0,0,0,.561.84788c1.11688,1.16918,4.583,4.58634,7.62014,5.34394a3.03471,3.03471,0,0,1,2.42479,2.70583l2.74691,60.30771a3.1267,3.1267,0,0,1-3.322,3.05515c-7.42229-.01062-24.8848-3.23356-32.906-31.79173a2.69317,2.69317,0,0,1-.094-.53956c-.27952-3.97751-3.4475-50.44811.12952-64.17794C328.19028,47.58324,331.19055,46.75015,333.06577,48.22864Z" transform="translate(-26.5 -36.13144)"/>
  <path class="cls-2" d="M296.22952,134.95769s-36.85851-9.085-36.85851,21.19843c0,0-.42859,14.00611,26.14383,15.14174,0,0,20.1436-2.6498,25.28665-15.52028V46S322.80193,74.39075,335.231,75.14784" transform="translate(-26.5 -36.13144)"/>
  <path class="cls-2" d="M337.72088,100.88879s-10.28609-.71474-25.28665-21.79954" transform="translate(-26.5 -36.13144)"/>
  <path class="cls-2" d="M336.08814,126.62752s-10.21249,1.68407-24.60281-24.419" transform="translate(-26.5 -36.13144)"/>
  <g>
    <path class="cls-3" d="M70.098,167.15259v4.53791H27V116.214h4.66324v50.93859Z" transform="translate(-26.5 -36.13144)"/>
    <path class="cls-3" d="M124.97157,144.01051c0,15.264-12.76146,27.68-28.4501,27.68s-28.45288-12.416-28.45288-27.68,12.76425-27.6827,28.45288-27.6827S124.97157,128.74655,124.97157,144.01051Zm-4.95567,0c0-12.60661-10.54079-22.86207-23.49443-22.86207-12.95735,0-23.49813,10.25546-23.49813,22.86207,0,12.603,10.54078,22.85846,23.49813,22.85846C109.47511,166.869,120.0159,156.61351,120.0159,144.01051Z" transform="translate(-26.5 -36.13144)"/>
    <path class="cls-3" d="M190.58922,144.01051c0,15.264-12.76146,27.68-28.4501,27.68s-28.45288-12.416-28.45288-27.68,12.76425-27.6827,28.45288-27.6827S190.58922,128.74655,190.58922,144.01051Zm-4.95567,0c0-12.60661-10.54079-22.86207-23.49443-22.86207-12.95735,0-23.49813,10.25546-23.49813,22.86207,0,12.603,10.54078,22.85846,23.49813,22.85846C175.09276,166.869,185.63355,156.61351,185.63355,144.01051Z" transform="translate(-26.5 -36.13144)"/>
    <path class="cls-3" d="M242.27751,130.41665a13.47575,13.47575,0,0,1-3.77478,9.34228,14.20593,14.20593,0,0,1-9.22528,4.3419l-1.29415.09936H202.32483V171.6905h-4.66324V139.5837h4.66324v.028H228.1634a9.19807,9.19807,0,1,0,0-18.3892c-.22745,0-.43726.00542-.63779.01988l-.11419.00813H202.32483v13.42043l-2.38407,1.14622-2.27917,1.09745v-20.23h30.86388l.39641.01988A13.89274,13.89274,0,0,1,242.27751,130.41665Z" transform="translate(-26.5 -36.13144)"/>
    <path class="cls-3" d="M98.36807,234.46209V239h-43.098V183.52351h4.66324v50.93858Z" transform="translate(-26.5 -36.13144)"/>
    <path class="cls-3" d="M107.015,239V183.86132h4.66323V239Z" transform="translate(-26.5 -36.13144)"/>
    <path class="cls-3" d="M170.3451,224.05669a14.592,14.592,0,0,1-1.9301,7.25488A15.444,15.444,0,0,1,154.986,239a15.99688,15.99688,0,0,1-2.00529-.12736l-.26273-.03432-.26181.03432A16.0227,16.0227,0,0,1,150.45,239H120.339V216.51278l2.22625,1.07215,2.437,1.17422v15.50152H157.0034l.20981-.04246a10.33605,10.33605,0,0,0-.22188-20.36278l-.18939-.03433H120.339V196.86175h4.66323v12.12156h27.04547l.16618-.0289a10.33468,10.33468,0,0,0,.55424-20.38l-.2191-.04787h-32.21v-4.7565H150.45a15.50023,15.50023,0,0,1,13.33056,7.51321l.00835.01716.00929.01355c.02878.04516.052.09122.07891.1391l.00557.01174.00836.01084a14.61121,14.61121,0,0,1-.04364,14.54949l-.026.04245-.01486.0253-.00835.01716-.01764.03071a15.34549,15.34549,0,0,1-1.49283,2.091l-1.52161,1.78662,2.05264,1.18506a15.599,15.599,0,0,1,2.35251,1.6674,14.98132,14.98132,0,0,1,3.22982,3.90563A14.59489,14.59489,0,0,1,170.3451,224.05669Z" transform="translate(-26.5 -36.13144)"/>
    <path class="cls-3" d="M227.93322,239h-5.46257l-16.87788-26.92849-.47811-.76324-.80119-1.28171-1.48726.40285-.06128.01716-.02878.00813-.00835.00271h-.00928l-.052.01445c-.117.03162-.23024.065-.34722.09123l-.06962.01626-.0325.01174-.03156.00542-.02043.00542-.03527.009c-.207.0542-.41685.09936-.62387.14723-.48369.10839-.97387.20143-1.46591.28362-.12255.02258-.24231.04246-.36764.05962l-.0492.00542-.05013.009c-.04642.00813-.09284.01716-.13926.02258l-.03528.00542c-.17175.02529-.34721.05148-.519.07136l-.02321.00271h-.01764c-.06127.00812-.12255.01716-.181.02258l-.04642.00542c-.18939.02258-.376.04516-.56538.06232h-.00836l-.0065.00271c-.24787.02348-.46883.04336-.67028.0569-.03528.00271-.06963.00633-.10213.009-.20053.01355-.402.02529-.60623.03613h-.02321l-.02042.00361h-.03156l-.05292.00271c-.15783.00542-.31751.01084-.46326.01716l-.16061.00542-.14854.00271c-.195.00271-.38806.00542-.583.00542H181.85882V239h-4.66323V206.91217H195.169a24.05459,24.05459,0,0,0,9.38867-1.87966,23.564,23.564,0,0,0,7.21256-4.74746,22.9756,22.9756,0,0,0,5.91375-9.345l.85133-2.5896H181.85882v13.78083l-2.113,1.01525-2.55025,1.22751v-20.5615h46.2805v.09935a26.76228,26.76228,0,0,1-.67586,5.993,27.22281,27.22281,0,0,1-7.751,13.60741c-.37321.35678-.72877.68014-1.08991.99267-.11976.10477-.24231.20955-.36207.30891-.02321.01987-.04642.037-.06684.0569-.16061.13278-.324.261-.48926.39382l-.00928.009-.00836.00542c-.1114.09032-.22745.18155-.35278.2782-.05013.03974-.10212.07587-.15132.11291l-.091.06864c-.29709.22672-.609.448-.959.68918-.11976.0822-.23859.16168-.35835.24388l-.02043.00813-.11976.07948c-.12533.08491-.25623.16981-.38713.2493l-.07334.04606-.01114.00813-.03806.02258c-.01486.01175-.02971.01987-.04642.03162-.02971.01626-.06128.03613-.091.05329l-1.68222,1.04686,1.03792,1.65926,1.05278,1.67824Z" transform="translate(-26.5 -36.13144)"/>
    <path class="cls-3" d="M253.98718,200.5208,256.75,205.738,238.96883,239h-5.5554ZM291.8668,239h-5.55541l-21.37587-39.98491-5.06893-9.48409,2.77491-5.19367,3.4777,6.5088Z" transform="translate(-26.5 -36.13144)"/>
    <path class="cls-3" d="M348.12641,239h-5.46257L325.786,212.07151l-.47812-.76324-.80118-1.28171-1.48726.40285-.06128.01716-.02878.00813-.00835.00271h-.00929l-.052.01445c-.117.03162-.23024.065-.34722.09123l-.06963.01626-.03249.01174-.03156.00542-.02043.00542-.03528.009c-.207.0542-.41684.09936-.62386.14723-.48369.10839-.97387.20143-1.46591.28362-.12255.02258-.24231.04246-.36764.05962l-.0492.00542-.05013.009c-.04642.00813-.09284.01716-.13926.02258l-.03528.00542c-.17175.02529-.34721.05148-.519.07136l-.02321.00271H319.032c-.06127.00812-.12255.01716-.181.02258l-.04642.00542c-.18939.02258-.376.04516-.56538.06232h-.00836l-.0065.00271c-.24787.02348-.46883.04336-.67029.0569-.03527.00271-.06962.00633-.10212.009-.20053.01355-.402.02529-.60623.03613h-.02321l-.02042.00361h-.03157l-.05291.00271c-.15783.00542-.31751.01084-.46326.01716l-.16061.00542-.14854.00271c-.195.00271-.38806.00542-.583.00542H302.052V239h-4.66323V206.91217h17.97337a24.05459,24.05459,0,0,0,9.38867-1.87966,23.564,23.564,0,0,0,7.21256-4.74746,22.9756,22.9756,0,0,0,5.91375-9.345l.85133-2.5896H302.052v13.78083l-2.113,1.01525-2.55025,1.22751v-20.5615h46.28049v.09935a26.76227,26.76227,0,0,1-.67585,5.993,27.22281,27.22281,0,0,1-7.751,13.60741c-.37321.35678-.72877.68014-1.08991.99267-.11976.10477-.24231.20955-.36207.30891-.02321.01987-.04642.037-.06684.0569-.16061.13278-.324.261-.48926.39382l-.00928.009-.00836.00542c-.1114.09032-.22745.18155-.35278.2782-.05013.03974-.10212.07587-.15132.11291l-.091.06864c-.29708.22672-.609.448-.959.68918-.11976.0822-.23859.16168-.35835.24388l-.02043.00813-.11976.07948c-.12533.08491-.25623.16981-.38713.2493l-.07334.04606-.01114.00813-.03807.02258c-.01485.01175-.0297.01987-.04641.03162-.02971.01626-.06128.03613-.091.05329l-1.68222,1.04686,1.03792,1.65926,1.05278,1.67824Z" transform="translate(-26.5 -36.13144)"/>
    <path class="cls-3" d="M396,183.80984,376.79,209.36l-.63222.84-.03528.04245-.02042.028-.82162,1.10015-.207.27549-.39364.52208V239h-4.66416V212.188l-.3927-.52207-.2191-.29175-.82533-1.10377-.02321-.028-.02042-.0289-.01114-.01355-.63315-.84-19.21183-25.55013h5.77451l16.23916,21.58849,1.41391,1.86069,1.68129-1.63669.11419-.10748.09284-.12555,16.23359-21.57946Z" transform="translate(-26.5 -36.13144)"/>
  </g>
</svg>
